HIERARCHY
ROOT Hips
{
	OFFSET 0.000000 0.000000 0.000000 
	CHANNELS 6 Xposition Yposition Zposition Zrotation Yrotation Xrotation
	JOINT LeftUpLeg
	{
		OFFSET 1.363060 -1.794630 0.839290 
		CHANNELS 3 Zrotation Yrotation Xrotation
		JOINT LeftLeg
		{
			OFFSET 2.448110 -6.726130 0.000000 
			CHANNELS 3 Zrotation Yrotation Xrotation
			JOINT LeftFoot
			{
				OFFSET 2.562200 -7.039590 0.000000 
				CHANNELS 3 Zrotation Yrotation Xrotation
				JOINT LeftToeBase
				{
					OFFSET 0.157640 -0.433110 2.322550 
					CHANNELS 3 Zrotation Yrotation Xrotation
					End Site
					{
						OFFSET 0.000000 0.000000 0.000000 
					}
				}
			}
		}
	}
	JOINT RightUpLeg
	{
		OFFSET -1.305520 -1.794630 0.839290 
		CHANNELS 3 Zrotation Yrotation Xrotation
		JOINT RightLeg
		{
			OFFSET -2.542530 -6.985550 0.000000 
			CHANNELS 3 Zrotation Yrotation Xrotation
			JOINT RightFoot
			{
				OFFSET -2.568260 -7.056230 0.000000 
				CHANNELS 3 Zrotation Yrotation Xrotation
				JOINT RightToeBase
				{
					OFFSET -0.164730 -0.452590 2.363150 
					CHANNELS 3 Zrotation Yrotation Xrotation
					End Site
					{
						OFFSET 0.000000 0.000000 0.000000 
					}
				}
			}
		}
	}
	JOINT Spine
	{
		OFFSET 0.028270 2.035590 -0.193380 
		CHANNELS 3 Zrotation Yrotation Xrotation
		JOINT Spine1
		{
			OFFSET 0.056720 2.048850 -0.042750 
			CHANNELS 3 Zrotation Yrotation Xrotation
			JOINT Neck1
			{
				OFFSET -0.054170 1.746240 0.172020 
				CHANNELS 3 Zrotation Yrotation Xrotation
				JOINT Head
				{
					OFFSET 0.104070 1.761360 -0.123970 
					CHANNELS 3 Zrotation Yrotation Xrotation
					End Site
					{
						OFFSET 0.000000 0.000000 0.000000 
					}
				}
			}
			JOINT LeftArm
			{
				OFFSET 3.362410 1.200890 -0.311210 
				CHANNELS 3 Zrotation Yrotation Xrotation
				JOINT LeftForeArm
				{
					OFFSET 4.983000 -0.000000 -0.000000 
					CHANNELS 3 Zrotation Yrotation Xrotation
					JOINT LeftHand
					{
						OFFSET 3.483560 -0.000000 -0.000000 
						CHANNELS 3 Zrotation Yrotation Xrotation
						JOINT LeftHandIndex1
						{
							OFFSET 0.715260 -0.000000 -0.000000 
							CHANNELS 3 Zrotation Yrotation Xrotation
							End Site
							{
								OFFSET 0.000000 0.000000 0.000000 
							}
						}
					}
				}
			}
			JOINT RightArm
			{
				OFFSET -3.136600 1.374050 -0.404650 
				CHANNELS 3 Zrotation Yrotation Xrotation
				JOINT RightForeArm
				{
					OFFSET -5.241900 -0.000000 -0.000000 
					CHANNELS 3 Zrotation Yrotation Xrotation
					JOINT RightHand
					{
						OFFSET -3.444170 -0.000000 -0.000000 
						CHANNELS 3 Zrotation Yrotation Xrotation
						JOINT RightHandIndex1
						{
							OFFSET -0.622530 -0.000000 -0.000000 
							CHANNELS 3 Zrotation Yrotation Xrotation
							End Site
							{
								OFFSET 0.000000 0.000000 0.000000 
							}
						}
					}
				}
			}
		}
	}
}
MOTION
Frames: 9
Frame Time: 0.041667
2.826078 17.756516 -1.462587 119.665610 -82.941659 -117.109538 -19.806962 2.532930 -6.809265 1.557752 10.415411 26.632390 -0.068381 3.120447 -7.480204 0.334000 -3.714300 -10.274200 21.916225 -0.532691 0.716090 -1.892643 -8.418998 20.441279 -1.119022 -10.587169 -25.022442 -0.564000 -4.810000 13.367500 0.398590 -0.842237 -1.091430 2.924220 -0.488677 6.562939 3.135084 -6.185429 9.522953 0.563800 -3.602700 11.980500 -84.757300 7.133713 25.682038 14.038798 -29.327895 -4.349871 -0.100838 0.033329 -11.823946 -7.125000 0.000000 0.000000 68.382597 -4.776578 5.237994 -12.976912 25.053700 -4.422481 1.246070 -0.005142 -9.344693 7.125000 0.000000 0.000000 
2.809424 17.750375 -1.412415 119.444677 -83.556647 -116.800794 -19.651168 2.132740 -6.704688 1.552925 10.407377 26.618196 -0.092018 3.400225 -8.234045 0.261500 -3.289900 -9.086900 22.293816 -0.691551 0.661902 -1.876615 -8.427987 20.407659 -1.110944 -10.594880 -25.018986 -0.539000 -4.703900 13.065900 0.453066 -0.913918 -1.155284 2.941259 -0.510717 6.451545 3.271203 -5.894842 9.402013 0.627700 -3.438200 11.890200 -85.085644 7.016499 25.688405 13.519356 -28.726087 -4.122957 -0.106626 0.037479 -12.179079 -7.125000 0.000000 0.000000 68.868963 -5.761706 7.376055 -13.508551 25.777720 -4.590222 1.252408 -0.034758 -9.323402 7.125000 0.000000 0.000000 
2.795163 17.737363 -1.362243 118.904273 -84.074095 -116.172599 -19.599800 1.656306 -6.594823 1.552171 10.422385 26.651863 -0.108168 3.656935 -9.036844 0.175700 -2.700000 -7.444600 22.638499 -0.500395 0.794736 -1.853715 -8.407313 20.300612 -1.104561 -10.990205 -25.289668 -0.554000 -4.768000 13.248000 0.504269 -0.997285 -1.187763 3.001675 -0.547381 6.487530 3.334013 -5.519945 9.407707 0.655200 -3.244400 11.891500 -85.434633 6.824468 25.649236 13.029487 -28.152554 -3.915141 -0.111327 0.042049 -12.165709 -7.125000 0.000000 0.000000 69.189475 -6.538402 9.473616 -13.946090 26.368383 -4.712697 1.256358 -0.043176 -9.623840 7.125000 0.000000 0.000000 
2.794331 17.727162 -1.294687 115.271848 -84.169508 -112.387558 -20.217834 1.032140 -6.632632 1.519742 10.458762 26.600570 -0.136596 4.000636 -9.768548 0.103000 -2.069600 -5.698100 21.985872 -1.435257 0.444885 -1.867033 -8.374400 20.311824 -1.126471 -10.650343 -25.145192 -0.559300 -4.790300 13.311500 0.451704 -1.069708 -1.231265 2.900978 -0.563551 6.498506 3.358655 -5.224166 9.413841 0.647400 -3.084600 11.920500 -85.646480 6.576880 25.942857 12.572622 -27.601873 -3.719219 -0.120312 0.045328 -11.941346 -7.125000 0.000000 0.000000 69.556125 -7.141351 11.339391 -14.339642 26.878838 -4.802694 1.258690 -0.046452 -9.992102 7.125000 0.000000 0.000000 
2.786211 17.718627 -1.257839 116.556171 -84.761611 -113.551369 -19.906455 0.807935 -6.632811 1.514959 10.435014 26.564056 -0.172333 4.365755 -10.426065 0.075400 -1.771800 -4.875400 22.906595 0.029385 0.798461 -1.841152 -8.441813 20.348119 -1.087499 -12.338267 -26.164057 -0.565600 -4.816700 13.386500 0.488933 -0.982684 -1.166317 2.880354 -0.532292 6.803232 3.456287 -5.041226 9.333056 0.650800 -2.956600 11.950000 -85.638590 6.068575 26.597836 12.130369 -27.065629 -3.531394 -0.128654 0.048041 -11.849373 -7.125000 0.000000 0.000000 70.158956 -7.293508 12.551029 -14.627117 27.228568 -4.852234 1.258753 -0.081087 -9.842873 7.125000 0.000000 0.000000 
2.772576 17.712069 -1.203399 114.634581 -84.952803 -111.525678 -20.223812 0.515739 -6.740305 1.492604 10.447741 26.513592 -0.211008 4.744146 -11.015246 0.066900 -1.668600 -4.590500 22.751609 -0.095515 0.751452 -1.842824 -8.439871 20.376706 -1.074780 -12.724013 -26.299069 -0.556500 -4.778500 13.277800 0.459241 -0.992663 -1.245293 2.811554 -0.517964 6.623696 3.528355 -4.782373 9.354283 0.667800 -2.811600 12.012000 -85.641261 6.030700 27.203220 11.743202 -26.593448 -3.369982 -0.133021 0.053017 -12.124105 -7.125000 0.000000 0.000000 70.780027 -7.942214 13.565439 -14.990667 27.657592 -4.948323 1.260508 -0.116410 -9.615196 7.125000 0.000000 0.000000 
2.752070 17.707177 -1.150105 113.516100 -85.156097 -110.417617 -20.476873 0.041290 -6.609111 1.482521 10.479608 26.543378 -0.322010 5.586044 -11.737685 0.031400 -1.144600 -3.146700 22.744330 -0.104929 0.985997 -1.824846 -8.389782 20.258496 -1.053633 -13.149273 -26.435084 -0.559300 -4.790100 13.311000 0.450731 -1.007765 -1.316198 2.773542 -0.507488 6.474909 3.355032 -4.443701 9.495007 0.546800 -2.657100 12.102300 -85.690375 6.064659 27.432321 11.351370 -26.119382 -3.218589 -0.135772 0.058433 -12.087248 -7.125000 0.000000 0.000000 71.308027 -8.700673 14.609613 -15.364542 28.091922 -5.045764 1.259480 -0.138244 -9.821008 7.125000 0.000000 0.000000 
2.736768 17.698850 -1.096602 112.949866 -85.369439 -109.820702 -20.699470 -0.512155 -6.449646 1.476358 10.519378 26.600400 -0.424655 6.384210 -12.517845 0.010400 -0.658500 -1.809600 22.802847 0.001569 1.215738 -1.802182 -8.334324 20.101506 -1.028353 -13.591410 -26.573414 -0.520400 -4.623400 12.837600 0.429863 -1.031196 -1.275654 2.694365 -0.520911 6.721758 3.574006 -4.167272 9.315737 0.661800 -2.486200 12.031700 -85.793396 5.889897 27.097532 11.032672 -25.725503 -3.108480 -0.136257 0.065149 -11.384469 -7.125000 0.000000 0.000000 71.859457 -9.088985 15.606990 -15.859175 28.659888 -5.201623 1.261119 -0.153740 -10.485355 7.125000 0.000000 0.000000 
2.731147 17.694374 -1.045805 113.217066 -85.720476 -109.915615 -20.728392 -1.119143 -6.457950 1.474118 10.549601 26.657841 -0.493326 6.973116 -13.258848 0.007200 -0.549300 -1.509500 23.174480 0.682637 1.371736 -1.776648 -8.301028 19.942952 -0.988930 -14.377543 -26.968276 -0.535600 -4.689200 13.024200 0.433632 -1.062238 -1.309742 2.626025 -0.529598 6.700049 3.852120 -3.816861 9.166555 0.831500 -2.284900 11.951800 -85.889801 5.982980 26.760576 10.895777 -25.562397 -3.065517 -0.142441 0.066903 -10.958340 -7.125000 0.000000 0.000000 72.422575 -9.579510 16.385794 -16.389780 29.250755 -5.385612 1.267275 -0.158564 -11.332817 7.125000 0.000000 0.000000 
